<svg width="52" height="52" viewBox="0 0 52 52" fill="none" xmlns="http://www.w3.org/2000/svg">
<path d="M39.7513 0H11.8925C5.32445 0 0 5.36117 0 11.9745V40.0255C0 46.6388 5.32445 52 11.8925 52H39.7513C46.3194 52 51.6438 46.6388 51.6438 40.0255V11.9745C51.6438 5.36117 46.3194 0 39.7513 0Z" fill="#242424"/>
<path d="M25.4719 34.7897C25.4719 39.1774 29.0277 42.7344 33.4141 42.7344C37.8005 42.7344 41.3563 39.1774 41.3563 34.7897V17.2043C41.3563 12.8166 37.8005 9.25968 33.4141 9.25968C29.0277 9.25968 25.4719 12.8166 25.4719 17.2043L25.4719 34.7897Z" fill="#0096FF"/>
<path d="M33.4117 42.7402V24.1094H25.4671V42.7402H33.4117Z" fill="#0096FF"/>
<path d="M23.4715 30.8605C23.4715 27.2312 20.5294 24.2891 16.9001 24.2891C13.2709 24.2891 10.3287 27.2312 10.3287 30.8605V36.1632C10.3287 39.7925 13.2709 42.7346 16.9001 42.7346C20.5294 42.7346 23.4715 39.7925 23.4715 36.1632V30.8605Z" fill="#FF3296"/>
<path d="M23.4716 42.739V34.4238H16.311V42.739H23.4716Z" fill="#FF3296"/>
<path d="M16.9001 22.4026C20.5294 22.4026 23.4715 19.4605 23.4715 15.8312C23.4715 12.2019 20.5294 9.25977 16.9001 9.25977C13.2709 9.25977 10.3287 12.2019 10.3287 15.8312C10.3287 19.4605 13.2709 22.4026 16.9001 22.4026Z" fill="#FFC814"/>
</svg>
